<svg width="32" height="32" viewBox="0 0 32 32" fill="none" xmlns="http://www.w3.org/2000/svg">
  <!-- Background circle -->
  <circle cx="16" cy="16" r="16" fill="#059669"/>
  
  <!-- Forest trees -->
  <path d="M8 20L12 12L16 20L20 12L24 20L20 28H12L8 20Z" fill="#10b981"/>
  <path d="M10 18L12 14L14 18L16 14L18 18L16 24H12L10 18Z" fill="#34d399"/>
  
  <!-- Map pin -->
  <circle cx="16" cy="8" r="2" fill="#fbbf24"/>
  <path d="M16 10L16 12L14 12L14 10L16 10Z" fill="#fbbf24"/>
  
  <!-- Compass rose -->
  <path d="M26 6L28 8L26 10L24 8L26 6Z" fill="#ffffff" opacity="0.9"/>
  <path d="M6 6L8 8L6 10L4 8L6 6Z" fill="#ffffff" opacity="0.9"/>
</svg>
